<svg width="26" height="26" viewBox="0 0 26 26" fill="none" xmlns="http://www.w3.org/2000/svg">
<path d="M20.8 13.0478C20.8 8.71329 17.3082 5.2002 13 5.2002C8.69175 5.2002 5.19995 8.71329 5.19995 13.0478C5.19995 16.9653 8.05183 20.2116 11.7812 20.8002V15.3164H9.80065V13.0478H11.7812V11.319C11.7812 9.35222 12.945 8.26565 14.7277 8.26565C15.5808 8.26565 16.4736 8.41901 16.4736 8.41901V10.3502H15.4891C14.5203 10.3502 14.2187 10.9557 14.2187 11.5764V13.0478H16.3819L16.0361 15.3164H14.2187V20.8002C17.9481 20.2116 20.8 16.9653 20.8 13.0478Z" fill="#262121"/>
<circle cx="13" cy="13" r="12.5" stroke="#262121" stroke-opacity="0.2"/>
</svg>
