<svg width="26" height="26" viewBox="0 0 26 26" fill="none" xmlns="http://www.w3.org/2000/svg">
<path fill-rule="evenodd" clip-rule="evenodd" d="M19.1215 16.4895C19.7825 15.3736 20.1621 14.0714 20.1621 12.6808C20.1621 11.3443 19.8115 10.0895 19.1975 9.00371C18.2567 7.33994 16.6967 6.07206 14.8307 5.51328C14.15 5.30929 13.4283 5.19971 12.681 5.19971C11.9338 5.19971 11.212 5.30929 10.5313 5.51328C8.65282 6.07571 7.0846 7.35672 6.14559 9.03704C5.54321 10.1152 5.19995 11.358 5.19995 12.6808C5.19995 14.0493 5.56763 15.3324 6.2094 16.4359C6.62993 17.1593 7.1685 17.8061 7.79874 18.3493C9.05167 19.4293 10.666 20.1011 12.4364 20.1578C12.5177 20.1606 12.5992 20.1618 12.681 20.1618C12.7629 20.1618 12.8444 20.1606 12.9256 20.1578C14.7048 20.1008 16.3269 19.4223 17.5825 18.3324C18.189 17.8061 18.7098 17.1837 19.1215 16.4895ZM8.65271 10.6665C8.65271 9.55408 9.55447 8.65232 10.6668 8.65232H14.6951C15.8075 8.65232 16.7092 9.55408 16.7092 10.6665V14.6947C16.7092 15.8071 15.8075 16.7089 14.6951 16.7089H10.6668C9.55447 16.7089 8.65271 15.8071 8.65271 14.6947V10.6665ZM10.6668 9.38474H14.6951C15.403 9.38474 15.9768 9.95858 15.9768 10.6665V14.6947C15.9768 15.4026 15.403 15.9764 14.6951 15.9764H10.6668C9.95897 15.9764 9.38512 15.4026 9.38512 14.6947V10.6665C9.38512 9.95858 9.95897 9.38474 10.6668 9.38474ZM14.9694 10.975C15.24 10.975 15.4594 10.7556 15.4594 10.485C15.4594 10.2144 15.24 9.99508 14.9694 9.99508C14.6988 9.99508 14.4794 10.2144 14.4794 10.485C14.4794 10.7556 14.6988 10.975 14.9694 10.975ZM12.7016 10.5705C11.5269 10.5705 10.5711 11.5263 10.5711 12.701C10.5711 13.8756 11.5269 14.8312 12.7016 14.8312C13.8763 14.8312 14.8319 13.8756 14.8319 12.701C14.8319 11.5263 13.8763 10.5705 12.7016 10.5705ZM12.7016 14.09C11.9354 14.09 11.3123 13.4669 11.3123 12.701C11.3123 11.9348 11.9354 11.3117 12.7016 11.3117C13.4676 11.3117 14.0907 11.9348 14.0907 12.701C14.0907 13.4669 13.4676 14.09 12.7016 14.09Z" fill="#262121"/>
<circle cx="13" cy="13" r="12.5" stroke="#262121" stroke-opacity="0.2"/>
</svg>
