<svg width="26" height="26" viewBox="0 0 26 26" fill="none" xmlns="http://www.w3.org/2000/svg">
<path fill-rule="evenodd" clip-rule="evenodd" d="M12.681 20.1618C16.8127 20.1618 20.1621 16.8125 20.1621 12.6808C20.1621 8.5491 16.8127 5.19971 12.681 5.19971C8.54937 5.19971 5.19998 8.5491 5.19998 12.6808C5.19998 16.8125 8.54937 20.1618 12.681 20.1618ZM15.7797 9.4693C16.2975 9.49845 16.5518 9.57512 16.7861 9.99192C17.0301 10.4082 17.1532 11.1252 17.1532 12.388V12.3896V12.3923C17.1532 13.6492 17.0301 14.3715 16.7866 14.7835C16.5523 15.2003 16.298 15.2759 15.7803 15.3109C15.2625 15.3406 13.9619 15.3585 12.8351 15.3585C11.7062 15.3585 10.4051 15.3406 9.88787 15.3104C9.37119 15.2753 9.1169 15.1997 8.88043 14.7829C8.63909 14.371 8.51492 13.6486 8.51492 12.3917V12.3907V12.389V12.3874C8.51492 11.1252 8.63909 10.4082 8.88043 9.99192C9.1169 9.57458 9.37173 9.49845 9.88841 9.46876C10.4051 9.43421 11.7062 9.41963 12.8351 9.41963C13.9619 9.41963 15.2625 9.43421 15.7797 9.4693Z" fill="#262121"/>
<path d="M11.7671 13.8662V11.0679L14.5654 12.467L11.7671 13.8662Z" fill="#262121"/>
<circle cx="13" cy="13" r="12.5" stroke="#262121" stroke-opacity="0.2"/>
</svg>
