<svg width="26" height="26" viewBox="0 0 26 26" fill="none" xmlns="http://www.w3.org/2000/svg">
<path fill-rule="evenodd" clip-rule="evenodd" d="M19.1215 16.4895C19.7826 15.3736 20.1621 14.0714 20.1621 12.6808C20.1621 11.3443 19.8116 10.0895 19.1976 9.00371C18.2567 7.33994 16.6967 6.07206 14.8308 5.51328C14.1501 5.30929 13.4283 5.19971 12.6811 5.19971C11.9338 5.19971 11.2121 5.30929 10.5314 5.51328C8.65288 6.07571 7.08466 7.35672 6.14565 9.03704C5.54327 10.1152 5.20001 11.358 5.20001 12.6808C5.20001 14.0493 5.5677 15.3324 6.20946 16.4359C6.62999 17.1593 7.16856 17.8061 7.7988 18.3493C9.05173 19.4293 10.6661 20.1011 12.4365 20.1578C12.5177 20.1606 12.5992 20.1618 12.6811 20.1618C12.7629 20.1618 12.8444 20.1606 12.9257 20.1578C14.7049 20.1008 16.327 19.4223 17.5825 18.3324C18.189 17.8061 18.7099 17.1837 19.1215 16.4895ZM8.65277 10.6665C8.65277 9.55408 9.55453 8.65232 10.6669 8.65232H14.6952C15.8075 8.65232 16.7093 9.55408 16.7093 10.6665V14.6947C16.7093 15.8071 15.8075 16.7089 14.6952 16.7089H10.6669C9.55453 16.7089 8.65277 15.8071 8.65277 14.6947V10.6665ZM10.6669 9.38474H14.6952C15.403 9.38474 15.9769 9.95858 15.9769 10.6665V14.6947C15.9769 15.4026 15.403 15.9764 14.6952 15.9764H10.6669C9.95903 15.9764 9.38518 15.4026 9.38518 14.6947V10.6665C9.38518 9.95858 9.95903 9.38474 10.6669 9.38474ZM14.9695 10.975C15.2401 10.975 15.4595 10.7556 15.4595 10.4851C15.4595 10.2144 15.2401 9.99508 14.9695 9.99508C14.6989 9.99508 14.4795 10.2144 14.4795 10.4851C14.4795 10.7556 14.6989 10.975 14.9695 10.975ZM12.7016 10.5705C11.527 10.5705 10.5712 11.5263 10.5712 12.701C10.5712 13.8756 11.527 14.8312 12.7016 14.8312C13.8763 14.8312 14.8319 13.8756 14.8319 12.701C14.8319 11.5263 13.8763 10.5705 12.7016 10.5705ZM12.7016 14.09C11.9355 14.09 11.3124 13.4669 11.3124 12.701C11.3124 11.9348 11.9355 11.3117 12.7016 11.3117C13.4676 11.3117 14.0907 11.9348 14.0907 12.701C14.0907 13.4669 13.4676 14.09 12.7016 14.09Z" fill="#262121"/>
<circle cx="13" cy="13" r="12.5" stroke="#262121" stroke-opacity="0.2"/>
</svg>
